<svg xmlns="http://www.w3.org/2000/svg" viewBox="0 0 24 24" fill="#ffffff" class="bi bi-linkedin">
  <path d="M4.5 3a2.5 2.5 0 1 1 0 5 2.5 2.5 0 0 1 0-5zm.45 6.75h-.9V20h.9V9.75zM7.45 9.75h-.9v10.25h.9v-4.55c0-2.1.68-3.23 2.44-3.23 1.63 0 2.3.98 2.3 2.95V20h.9v-4.8c0-2.4-.92-3.7-2.9-3.7-1.62 0-2.46.73-2.83 1.57V9.75zM19.5 9h-.9v5.75c0 2.17-.68 3.25-2.45 3.25-1.59 0-2.29-.98-2.29-2.95V9h-.9v10.25h.9v-4.55c0-2.1.68-3.23 2.44-3.23 1.62 0 2.3.98 2.3 2.95V20h.9v-4.8c0-2.4-.92-3.7-2.9-3.7-1.62 0-2.46.73-2.83 1.57V9.75z"/>
</svg>
